<?xml version="1.0" encoding="UTF-8" standalone="no"?>
<svg viewBox="0 0 50 50"
 xmlns="http://www.w3.org/2000/svg" xmlns:xlink="http://www.w3.org/1999/xlink"  version="1.2" baseProfile="tiny">
<title>Qt SVG Document</title>
<desc>Generated with Qt</desc>
<defs>
</defs>
<g fill="none" stroke="black" stroke-width="1" fill-rule="evenodd" stroke-linecap="square" stroke-linejoin="bevel" >

<g fill="#c32d1e" fill-opacity="1" stroke="none" transform="matrix(1.13636,0,0,1.78571,56.8182,171.429)"
font-family="Noto Sans" font-size="10" font-weight="400" font-style="normal" 
>
<path vector-effect="none" fill-rule="nonzero" d="M-50,-96 L-50,-68 L-6,-68 L-6,-90 C-6,-93.3137 -8.68629,-96 -12,-96 L-50,-96"/>
</g>

<g fill="#000000" fill-opacity="1" stroke="none" transform="matrix(4.29492,0,0,6.74916,-105.682,175)"
font-family="Noto Sans" font-size="10" font-weight="400" font-style="normal" 
opacity="0.003" >
<rect x="27.5167" y="-25.1354" width="5.82083" height="5.82083"/>
</g>

<g fill="#ffffff" fill-opacity="1" stroke="none" transform="matrix(4.29492,0,0,6.74916,-105.682,175)"
font-family="Noto Sans" font-size="10" font-weight="400" font-style="normal" 
>
<path vector-effect="none" fill-rule="nonzero" d="M31.6169,-23.5479 C31.583,-23.5479 31.5487,-23.5352 31.5229,-23.5092 L30.4258,-22.4121 L29.3277,-23.5092 C29.2762,-23.5598 29.1936,-23.5598 29.1421,-23.5092 C29.0915,-23.4577 29.0915,-23.3751 29.1421,-23.3236 L30.2408,-22.225 L29.1437,-21.1269 C29.0931,-21.0754 29.0931,-20.9928 29.1437,-20.9414 C29.1952,-20.8907 29.2777,-20.8907 29.3292,-20.9414 L30.4273,-22.0384 L31.5244,-20.9414 C31.5761,-20.8894 31.6603,-20.8894 31.712,-20.9414 C31.7626,-20.9928 31.7626,-21.0754 31.712,-21.1269 L30.6139,-22.225 L31.7105,-23.3236 C31.7611,-23.3751 31.7611,-23.4577 31.7105,-23.5092 C31.6846,-23.5352 31.6509,-23.5479 31.6169,-23.5479 L31.6169,-23.5479"/>
</g>

<g fill="none" stroke="#000000" stroke-opacity="1" stroke-width="1" stroke-linecap="square" stroke-linejoin="bevel" transform="matrix(1,0,0,1,0,0)"
font-family="Noto Sans" font-size="10" font-weight="400" font-style="normal" 
>
</g>
</g>
</svg>
