<?xml version="1.0" encoding="UTF-8" standalone="no"?>
<svg viewBox="0 0 50 50"
 xmlns="http://www.w3.org/2000/svg" xmlns:xlink="http://www.w3.org/1999/xlink"  version="1.2" baseProfile="tiny">
<title>Qt SVG Document</title>
<desc>Generated with Qt</desc>
<defs>
</defs>
<g fill="none" stroke="black" stroke-width="1" fill-rule="evenodd" stroke-linecap="square" stroke-linejoin="bevel" >

<g fill="#000000" fill-opacity="1" stroke="none" transform="matrix(4.97306,0,0,5.90551,-2.63158,57.8125)"
font-family="Noto Sans" font-size="10" font-weight="400" font-style="normal" 
opacity="0.003" >
<rect x="0.529167" y="-9.78958" width="10.0542" height="8.46667"/>
</g>

<g fill="#000000" fill-opacity="1" stroke="none" transform="matrix(4.29492,0,0,6.74916,-79.5455,137.5)"
font-family="Noto Sans" font-size="10" font-weight="400" font-style="normal" 
opacity="0.003" >
<rect x="21.4313" y="-19.5792" width="5.82083" height="5.82083"/>
</g>

<g fill="#ffffff" fill-opacity="1" stroke="none" transform="matrix(4.29492,0,0,6.74916,-79.5455,137.5)"
font-family="Noto Sans" font-size="10" font-weight="400" font-style="normal" 
opacity="0.4" >
<path vector-effect="none" fill-rule="nonzero" d="M25.5313,-17.9917 C25.4973,-17.9917 25.4631,-17.9789 25.4372,-17.9529 L24.3401,-16.8558 L23.242,-17.9529 C23.1905,-18.0035 23.108,-18.0035 23.0565,-17.9529 C23.0058,-17.9014 23.0058,-17.8189 23.0565,-17.7674 L24.1551,-16.6687 L23.058,-15.5706 C23.0074,-15.5191 23.0074,-15.4366 23.058,-15.3851 C23.1095,-15.3345 23.1921,-15.3345 23.2435,-15.3851 L24.3417,-16.4822 L25.4388,-15.3851 C25.4905,-15.3331 25.5746,-15.3331 25.6263,-15.3851 C25.677,-15.4366 25.677,-15.5191 25.6263,-15.5706 L24.5282,-16.6687 L25.6248,-17.7674 C25.6754,-17.8189 25.6754,-17.9014 25.6248,-17.9529 C25.5989,-17.9789 25.5652,-17.9917 25.5313,-17.9917 L25.5313,-17.9917"/>
</g>

<g fill="none" stroke="#000000" stroke-opacity="1" stroke-width="1" stroke-linecap="square" stroke-linejoin="bevel" transform="matrix(1,0,0,1,0,0)"
font-family="Noto Sans" font-size="10" font-weight="400" font-style="normal" 
>
</g>
</g>
</svg>
