<?xml version="1.0" encoding="UTF-8" standalone="no"?>
<svg viewBox="0 0 50 50"
 xmlns="http://www.w3.org/2000/svg" xmlns:xlink="http://www.w3.org/1999/xlink"  version="1.2" baseProfile="tiny">
<title>Qt SVG Document</title>
<desc>Generated with Qt</desc>
<defs>
</defs>
<g fill="none" stroke="black" stroke-width="1" fill-rule="evenodd" stroke-linecap="square" stroke-linejoin="bevel" >

<g fill="#000000" fill-opacity="1" stroke="none" transform="matrix(4.97306,0,0,5.90551,-2.63158,57.8125)"
font-family="Noto Sans" font-size="10" font-weight="400" font-style="normal" 
opacity="0.003" >
<rect x="0.529167" y="-9.78958" width="10.0542" height="8.46667"/>
</g>

<g fill="#000000" fill-opacity="1" stroke="none" transform="matrix(4.29492,0,0,6.74916,-79.5455,137.5)"
font-family="Noto Sans" font-size="10" font-weight="400" font-style="normal" 
opacity="0.003" >
<rect x="21.4313" y="-19.5792" width="5.82083" height="5.82083"/>
</g>

<g fill="#ffffff" fill-opacity="1" stroke="none" transform="matrix(1.13636,0,0,1.78571,-70.4545,175)"
font-family="Noto Sans" font-size="10" font-weight="400" font-style="normal" 
opacity="0.4" >
<path vector-effect="none" fill-rule="nonzero" d="M83,-89 C82.2589,-89 81.621,-88.5958 81.2754,-88 L86,-88 C87.108,-88 88,-87.108 88,-86 L88,-81.2754 C88.5958,-81.621 89,-82.2589 89,-83 L89,-86 C89,-87.662 87.662,-89 86,-89 L83,-89 M81,-87 C79.892,-87 79,-86.108 79,-85 L79,-81 C79,-79.892 79.892,-79 81,-79 L85,-79 C86.108,-79 87,-79.892 87,-81 L87,-85 C87,-86.108 86.108,-87 85,-87 L81,-87 M81,-86 L85,-86 C85.554,-86 86,-85.554 86,-85 L86,-81 C86,-80.446 85.554,-80 85,-80 L81,-80 C80.446,-80 80,-80.446 80,-81 L80,-85 C80,-85.554 80.446,-86 81,-86 "/>
</g>

<g fill="none" stroke="#000000" stroke-opacity="1" stroke-width="1" stroke-linecap="square" stroke-linejoin="bevel" transform="matrix(1,0,0,1,0,0)"
font-family="Noto Sans" font-size="10" font-weight="400" font-style="normal" 
>
</g>
</g>
</svg>
