<?xml version="1.0" encoding="UTF-8" standalone="no"?>
<svg viewBox="0 0 50 50"
 xmlns="http://www.w3.org/2000/svg" xmlns:xlink="http://www.w3.org/1999/xlink"  version="1.2" baseProfile="tiny">
<title>Qt SVG Document</title>
<desc>Generated with Qt</desc>
<defs>
</defs>
<g fill="none" stroke="black" stroke-width="1" fill-rule="evenodd" stroke-linecap="square" stroke-linejoin="bevel" >

<g fill="#ffffff" fill-opacity="1" stroke="none" transform="matrix(4.97306,0,0,5.90551,-2.63158,179.688)"
font-family="Noto Sans" font-size="10" font-weight="400" font-style="normal" 
opacity="0.25" >
<rect x="0.529167" y="-30.4271" width="10.0542" height="8.46667"/>
</g>

<g fill="#000000" fill-opacity="1" stroke="none" transform="matrix(4.29492,0,0,6.74916,-105.682,175)"
font-family="Noto Sans" font-size="10" font-weight="400" font-style="normal" 
opacity="0.003" >
<rect x="27.5167" y="-25.1354" width="5.82083" height="5.82083"/>
</g>

<g fill="#ffffff" fill-opacity="1" stroke="none" transform="matrix(4.29492,0,0,6.74916,-105.682,175)"
font-family="Noto Sans" font-size="10" font-weight="400" font-style="normal" 
>
<path vector-effect="none" fill-rule="nonzero" d="M29.6333,-23.5479 C29.3402,-23.5479 29.1042,-23.3119 29.1042,-23.0188 L29.1042,-21.4313 C29.1042,-21.1381 29.3402,-20.9021 29.6333,-20.9021 L31.2208,-20.9021 C31.514,-20.9021 31.75,-21.1381 31.75,-21.4313 L31.75,-23.0188 C31.75,-23.3119 31.514,-23.5479 31.2208,-23.5479 L29.6333,-23.5479 M29.6333,-23.2833 L31.2208,-23.2833 C31.3674,-23.2833 31.4854,-23.1653 31.4854,-23.0187 L31.4854,-21.4312 C31.4854,-21.2847 31.3674,-21.1667 31.2208,-21.1667 L29.6333,-21.1667 C29.4868,-21.1667 29.3687,-21.2847 29.3687,-21.4312 L29.3687,-23.0187 C29.3687,-23.1653 29.4868,-23.2833 29.6333,-23.2833 "/>
</g>

<g fill="none" stroke="#000000" stroke-opacity="1" stroke-width="1" stroke-linecap="square" stroke-linejoin="bevel" transform="matrix(1,0,0,1,0,0)"
font-family="Noto Sans" font-size="10" font-weight="400" font-style="normal" 
>
</g>
</g>
</svg>
