<?xml version="1.0" encoding="UTF-8" standalone="no"?>
<svg viewBox="0 0 50 50"
 xmlns="http://www.w3.org/2000/svg" xmlns:xlink="http://www.w3.org/1999/xlink"  version="1.2" baseProfile="tiny">
<title>Qt SVG Document</title>
<desc>Generated with Qt</desc>
<defs>
</defs>
<g fill="none" stroke="black" stroke-width="1" fill-rule="evenodd" stroke-linecap="square" stroke-linejoin="bevel" >

<g fill="#ffffff" fill-opacity="1" stroke="none" transform="matrix(4.97306,0,0,5.90551,-2.63158,117.188)"
font-family="Noto Sans" font-size="10" font-weight="400" font-style="normal" 
opacity="0.1" >
<rect x="0.529167" y="-19.8438" width="10.0542" height="8.46667"/>
</g>

<g fill="#000000" fill-opacity="1" stroke="none" transform="matrix(4.29492,0,0,6.74916,-105.682,175)"
font-family="Noto Sans" font-size="10" font-weight="400" font-style="normal" 
opacity="0.003" >
<rect x="27.5167" y="-25.1354" width="5.82083" height="5.82083"/>
</g>

<g fill="#ffffff" fill-opacity="1" stroke="none" transform="matrix(4.29492,0,0,6.74916,-105.682,175)"
font-family="Noto Sans" font-size="10" font-weight="400" font-style="normal" 
>
<path vector-effect="none" fill-rule="evenodd" d="M29.1042,-22.0927 C29.1042,-22.1658 29.1575,-22.225 29.2232,-22.225 L31.6309,-22.225 C31.6967,-22.225 31.75,-22.1658 31.75,-22.0927 C31.75,-22.0196 31.6967,-21.9604 31.6309,-21.9604 L29.2232,-21.9604 C29.1575,-21.9604 29.1042,-22.0196 29.1042,-22.0927 "/>
</g>

<g fill="none" stroke="#000000" stroke-opacity="1" stroke-width="1" stroke-linecap="square" stroke-linejoin="bevel" transform="matrix(1,0,0,1,0,0)"
font-family="Noto Sans" font-size="10" font-weight="400" font-style="normal" 
>
</g>
</g>
</svg>
